<svg width="900" height="1100" viewBox="0 0 900 1100" fill="none" xmlns="http://www.w3.org/2000/svg">
  <rect width="900" height="1100" rx="36" fill="#EEE7DE"/>
  <circle cx="685" cy="192" r="130" fill="#F8F5F1" stroke="#CFC6BA" stroke-width="2" stroke-dasharray="8 8"/>
  <path d="M250 838C173 777 128 691 128 576C128 364 265 191 450 191C635 191 772 364 772 576C772 691 727 777 650 838" stroke="#1E1E1E" stroke-width="4" stroke-linecap="round"/>
  <circle cx="450" cy="395" r="110" stroke="#1E1E1E" stroke-width="4"/>
  <path d="M323 571C352 508 406 476 450 476C494 476 548 508 577 571" stroke="#1E1E1E" stroke-width="4" stroke-linecap="round"/>
  <rect x="189" y="780" width="522" height="94" rx="20" fill="#F8F5F1" stroke="#BEB4A7"/>
  <text x="450" y="820" text-anchor="middle" fill="#2A2825" font-family="Arial, sans-serif" font-size="31" font-weight="700">Espaço reservado para foto principal</text>
  <text x="450" y="856" text-anchor="middle" fill="#6B655E" font-family="Arial, sans-serif" font-size="21">Substitua por uma imagem profissional em alta qualidade</text>
  <path d="M172 143C202 119 229 106 269 98" stroke="#1E1E1E" stroke-width="3" stroke-linecap="round"/>
  <path d="M148 172C177 161 215 159 249 166" stroke="#1E1E1E" stroke-width="3" stroke-linecap="round"/>
</svg>
